# xmcd CD database file
# Copyright (C) 1996 Ti Kan
#
# Track frame offsets:
# 	150
# 	18332
# 	49455
# 	65985
# 	82777
# 	100760
# 	120177
# 	137267
# 	167402
# 	184315
#
# Disc length: 2666 seconds
#
# Revision: 1
# Processed by: cddbd v1.4b41PL1 Copyright (c) Steve Scherf et al.
# Submitted via: DiscPlay 3.4.1
#
DISCID=780a680a
DTITLE=Jimmy Lloyd Rea and the Switchmasters - The Blues Is On The Line
DYEAR=1900
DGENRE=
TTITLE0='61 Chevrolet Blooz
TTITLE1=Home Boy Blues
TTITLE2=It Takes a Man to Quit
TTITLE3=Honey Be
TTITLE4=I've Been Hozed
TTITLE5=The Pony Blues
TTITLE6=I'm A Hog For Ya Baby
TTITLE7=Back To The Blues Again
TTITLE8=Big Legs Tight Skirts
TTITLE9=The Blues Is On The Line
EXTD=
EXTT0=
EXTT1=
EXTT2=
EXTT3=
EXTT4=
EXTT5=
EXTT6=
EXTT7=
EXTT8=
EXTT9=
PLAYORDER=
